# xmcd
#
# Track frame offsets: 
#        150
#        30084
#        48693
#        76338
#        93360
#        116902
#        143990
#        177724
#        215532
#        232205
#        262678
#
# Disc length: 3864 seconds
#
# Revision: 0
# Processed by: cddbd v1.5.2PL0 Copyright (c) Steve Scherf et al.
# Submitted via: ExactAudioCopy v1.0b3
#
DISCID=990f160b
DTITLE=Various Artist - The Best In Trance Vol. 4 - CD 3
DYEAR=1900
DGENRE=
TTITLE0=Talla 2XLC Feat. Naama Hillman - No Inbetween (Original)
TTITLE1=Jes - Ghost (Album Version)
TTITLE2=Andrew Spencer and The Vamprockerz - Zombie (Ray Knox Remix)
TTITLE3=Understatement - The Message (Rough Radio Edit)
TTITLE4=2 Vibez - I Believe (Rocco Vs. Bass-T Remix)
TTITLE5=D-Style - Gone (Extended Mix)
TTITLE6=DJ Klubbingman Feat. Beatrix Delgado - Never Stop This Feeling
TTITLE6=(Original Club Mix)
TTITLE7=Bissen Feat. Victoria Jane - Melting (Alex M.O.R.P.H B2B Woody
TTITLE7=Van Eyden Remix)
TTITLE8=Scotty Feat. M.C. Sherlock - Insomnia 2006 (No Sleep Trance Mi
TTITLE8=x Edit)
TTITLE9=DJ Schwede Meets Dr. Flash - Love Is Strange (Club Mix)
TTITLE10=David Kane - Club Sound (Krafft Reconstructed Mix)
EXTD=
EXTT0=
EXTT1=
EXTT2=
EXTT3=
EXTT4=
EXTT5=
EXTT6=
EXTT7=
EXTT8=
EXTT9=
EXTT10=
PLAYORDER=
